<?xml version="1.0" encoding="UTF-8" standalone="no"?>
<svg
   version="1.1"
   id="Layer_1"
   x="0px"
   y="0px"
   width="100%"
   viewBox="0 0 531 630"
   enable-background="new 0 0 531 630"
   xml:space="preserve"
   sodipodi:docname="logo-line-only.svg"
   inkscape:version="1.4.2 (f4327f4, 2025-05-13)"
   xmlns:inkscape="http://www.inkscape.org/namespaces/inkscape"
   xmlns:sodipodi="http://sodipodi.sourceforge.net/DTD/sodipodi-0.dtd"
   xmlns="http://www.w3.org/2000/svg"
   xmlns:svg="http://www.w3.org/2000/svg"><defs
   id="defs53" /><sodipodi:namedview
   id="namedview53"
   pagecolor="#ffffff"
   bordercolor="#000000"
   borderopacity="0.25"
   inkscape:showpageshadow="2"
   inkscape:pageopacity="0.0"
   inkscape:pagecheckerboard="0"
   inkscape:deskcolor="#d1d1d1"
   inkscape:zoom="0.90577012"
   inkscape:cx="173.33316"
   inkscape:cy="328.44979"
   inkscape:window-width="1920"
   inkscape:window-height="1009"
   inkscape:window-x="-8"
   inkscape:window-y="-8"
   inkscape:window-maximized="1"
   inkscape:current-layer="Layer_1" />
<path
   fill="#000000"
   opacity="1.000000"
   stroke="none"
   d=" M1.000000,219.000000   C1.000000,146.000015 1.000000,73.500046 1.000000,1.000049   C177.999924,1.000032 354.999847,1.000032 531.999817,1.000016   C531.999878,210.999863 531.999878,420.999725 531.999939,630.999634   C355.000183,630.999756 178.000381,630.999756 1.000285,630.999878   C1.000000,493.833344 1.000000,356.666656 1.000000,219.000000  M447.006012,298.570374   C446.673462,293.768860 445.801788,288.930145 446.129669,284.174164   C446.675476,276.257660 448.449829,268.419067 448.878204,260.502808   C449.596771,247.223541 449.830139,233.910736 449.964417,220.608963   C450.135956,203.613205 450.000885,186.614395 450.015137,169.616898   C450.016663,167.786835 450.021088,165.945114 450.212555,164.128647   C452.306671,144.264313 451.232300,124.634956 446.101044,105.269600   C445.317566,102.312737 443.561646,100.760933 440.712372,101.467567   C436.122284,102.605896 435.236084,100.237663 435.001068,96.500008   C434.407623,87.060738 433.789062,77.618874 432.872131,68.208092   C432.713196,66.576637 431.044464,65.092278 430.073090,63.539967   C428.585358,64.631981 426.510895,65.409546 425.724304,66.877319   C423.690063,70.673294 422.268402,74.793388 420.520813,78.748116   C417.742828,85.034584 412.950165,89.161880 406.571014,92.582512   C405.935944,88.625427 405.643860,85.645500 404.919128,82.774818   C404.551880,81.319992 403.672668,79.352196 402.531128,78.919746   C401.438873,78.505981 399.443756,79.456848 398.309052,80.378601   C395.671021,82.521561 393.312286,85.008385 389.876465,88.271240   C387.971832,83.491486 386.283783,79.943123 385.130646,76.228706   C382.024445,66.223282 379.286987,56.102348 376.114929,46.118858   C374.660614,41.541744 372.020752,41.214417 368.995789,44.871693   C368.159119,45.883259 367.511993,47.072613 366.896790,48.242912   C362.868652,55.905384 358.969208,63.637779 354.801147,71.222832   C353.728058,73.175682 351.976746,74.828011 350.302948,76.363213   C347.067566,79.330727 344.504639,79.006683 342.792786,74.605339   C341.528198,71.354095 340.180145,68.090813 338.423859,65.093948   C337.535248,63.577694 335.535309,61.573223 334.263214,61.721622   C332.808441,61.891331 331.103333,63.989479 330.387512,65.633148   C328.464752,70.048195 327.123474,74.713684 325.292725,79.173584   C324.836731,80.284447 323.368439,81.729309 322.427002,81.685875   C321.435455,81.640152 320.085541,80.160728 319.649750,79.018646   C318.407684,75.763557 317.832916,72.239571 316.456360,69.054413   C315.283844,66.341316 313.363098,63.951584 311.773376,61.418777   C309.611023,63.748131 307.094574,65.843872 305.368073,68.460777   C302.679504,72.535973 300.527496,76.965149 297.541779,82.334679   C290.493195,74.584991 284.219299,67.782310 278.101013,60.842453   C277.315002,59.950882 277.267212,58.361462 276.996368,57.070370   C275.222321,48.613579 273.749756,40.078972 271.547394,31.736458   C270.968842,29.545057 268.445923,26.876070 266.315094,26.309303   C262.804047,25.375422 261.155273,28.242107 260.574646,31.613787   C259.447754,38.158020 258.334076,44.711773 256.913208,51.195457   C256.037415,55.191643 255.506699,59.724667 253.224442,62.851185   C249.036194,68.588760 243.698517,73.494125 238.764481,78.674492   C237.815216,79.671158 236.519287,80.337639 234.880615,81.518745   C231.860031,76.003502 229.347519,70.952179 226.364319,66.196098   C225.162918,64.280724 222.930054,63.012333 221.166611,61.449493   C219.715881,63.326008 217.869614,65.020882 216.905289,67.120773   C215.384918,70.431526 214.626968,74.086166 213.205261,77.451157   C212.517288,79.079498 211.054184,80.380348 209.942032,81.829475   C208.903046,80.504936 207.566696,79.317093 206.882721,77.829338   C205.077240,73.902092 203.762909,69.740120 201.826004,65.886238   C200.944046,64.131401 199.054169,62.883141 197.621475,61.405094   C196.110260,62.989719 194.147263,64.340393 193.180649,66.207039   C191.084534,70.254883 189.497894,74.566551 187.738693,78.686562   C181.991531,77.239326 178.465332,74.563164 176.251282,69.695137   C172.598160,61.663010 168.536285,53.808556 164.387436,46.017269   C163.583069,44.506725 161.684280,42.922859 160.115738,42.719498   C159.162827,42.595947 157.377121,44.873280 156.825668,46.385700   C154.661240,52.321850 152.868942,58.392658 150.881210,64.394501   C148.301682,72.183243 145.667587,79.953911 142.593582,89.113068   C139.298874,85.429443 137.322525,82.776436 134.879044,80.663727   C133.536789,79.503197 131.119064,78.383644 129.718277,78.848579   C128.442352,79.272072 127.530281,81.771935 127.094620,83.515678   C126.451645,86.089188 126.373055,88.803719 125.931702,92.477058   C119.686752,87.945023 114.087364,84.869972 111.799965,78.111771   C110.476112,74.200378 108.444038,70.476326 106.318626,66.913803   C105.441254,65.443161 103.483414,64.617111 102.016991,63.497898   C101.012024,65.196892 99.297447,66.825493 99.120750,68.606659   C98.187393,78.015335 97.682579,87.465775 96.920815,96.892975   C96.792755,98.477783 96.134514,100.019745 95.633430,101.913361   C91.804329,101.060913 87.861313,100.191467 87.006744,105.170326   C85.184509,115.786728 82.617615,126.415146 82.233963,137.106049   C81.650223,153.372421 82.757454,169.694763 82.963768,185.995651   C83.134583,199.491302 83.228813,212.993164 83.022888,226.487167   C82.673645,249.373642 87.599258,271.970764 86.146797,294.959442   C85.056808,312.211029 85.350082,329.548950 84.946533,346.846527   C84.902794,348.721100 84.320755,350.583069 83.734451,353.878143   C79.597099,347.773041 76.413994,342.756714 72.861656,338.017090   C71.706261,336.475525 69.586296,335.656891 67.907509,334.507568   C66.803741,336.211853 65.603416,337.863770 64.638588,339.643402   C64.183281,340.483185 64.166832,341.565338 63.973198,342.541962   C59.417110,365.521881 54.771664,388.484619 50.348053,411.490051   C48.029305,423.548859 44.480610,435.656555 44.284775,447.787323   C43.558609,492.768982 43.989170,537.769409 44.000656,582.762817   C44.002884,591.493042 44.541290,592.003235 53.446178,592.003418   C195.092010,592.006531 336.737823,592.006714 478.383667,592.002808   C487.596954,592.002502 487.999207,591.609375 488.001038,582.447449   C488.009979,537.620728 488.013214,492.793976 487.978760,447.967285   C487.977112,445.823120 487.768921,443.646667 487.367340,441.540466   C484.628967,427.177979 481.838287,412.825317 479.015778,398.479065   C475.135834,378.757935 471.262848,359.035065 467.221222,339.346954   C466.867218,337.622589 465.285309,336.150299 464.273804,334.560974   C462.566589,335.656677 460.716858,336.588837 459.204010,337.907501   C458.252167,338.737183 457.848358,340.174103 457.123779,341.289917   C454.771484,344.912598 452.384613,348.512756 450.011047,352.121613   C449.466492,351.966278 448.921967,351.810944 448.377411,351.655640   C447.920288,334.288147 447.463165,316.920685 447.006012,298.570374  z"
   id="path1"
   style="fill:#ffffff;fill-opacity:0" />
<path
   fill="#FFFFFF"
   opacity="1.000000"
   stroke="none"
   d=" M447.006042,299.061768   C447.463165,316.920685 447.920288,334.288147 448.377411,351.655640   C448.921967,351.810944 449.466492,351.966278 450.011047,352.121613   C452.384613,348.512756 454.771484,344.912598 457.123779,341.289917   C457.848358,340.174103 458.252167,338.737183 459.204010,337.907501   C460.716858,336.588837 462.566589,335.656677 464.273804,334.560974   C465.285309,336.150299 466.867218,337.622589 467.221222,339.346954   C471.262848,359.035065 475.135834,378.757935 479.015778,398.479065   C481.838287,412.825317 484.628967,427.177979 487.367340,441.540466   C487.768921,443.646667 487.977112,445.823120 487.978760,447.967285   C488.013214,492.793976 488.009979,537.620728 488.001038,582.447449   C487.999207,591.609375 487.596954,592.002502 478.383667,592.002808   C336.737823,592.006714 195.092010,592.006531 53.446178,592.003418   C44.541290,592.003235 44.002884,591.493042 44.000656,582.762817   C43.989170,537.769409 43.558609,492.768982 44.284775,447.787323   C44.480610,435.656555 48.029305,423.548859 50.348053,411.490051   C54.771664,388.484619 59.417110,365.521881 63.973198,342.541962   C64.166832,341.565338 64.183281,340.483185 64.638588,339.643402   C65.603416,337.863770 66.803741,336.211853 67.907509,334.507568   C69.586296,335.656891 71.706261,336.475525 72.861656,338.017090   C76.413994,342.756714 79.597099,347.773041 83.734451,353.878143   C84.320755,350.583069 84.902794,348.721100 84.946533,346.846527   C85.350082,329.548950 85.056808,312.211029 86.146797,294.959442   C87.599258,271.970764 82.673645,249.373642 83.022888,226.487167   C83.228813,212.993164 83.134583,199.491302 82.963768,185.995651   C82.757454,169.694763 81.650223,153.372421 82.233963,137.106049   C82.617615,126.415146 85.184509,115.786728 87.006744,105.170326   C87.861313,100.191467 91.804329,101.060913 95.633430,101.913361   C96.134514,100.019745 96.792755,98.477783 96.920815,96.892975   C97.682579,87.465775 98.187393,78.015335 99.120750,68.606659   C99.297447,66.825493 101.012024,65.196892 102.016991,63.497894   C103.483414,64.617111 105.441254,65.443161 106.318626,66.913803   C108.444038,70.476326 110.476112,74.200378 111.799965,78.111771   C114.087364,84.869972 119.686752,87.945023 125.931702,92.477058   C126.373055,88.803719 126.451645,86.089188 127.094620,83.515678   C127.530281,81.771935 128.442352,79.272072 129.718277,78.848579   C131.119064,78.383644 133.536789,79.503197 134.879044,80.663727   C137.322525,82.776436 139.298874,85.429443 142.593582,89.113068   C145.667587,79.953911 148.301682,72.183243 150.881210,64.394501   C152.868942,58.392658 154.661240,52.321850 156.825668,46.385700   C157.377121,44.873280 159.162827,42.595947 160.115738,42.719498   C161.684280,42.922859 163.583069,44.506725 164.387436,46.017269   C168.536285,53.808556 172.598160,61.663010 176.251282,69.695137   C178.465332,74.563164 181.991531,77.239326 187.738693,78.686562   C189.497894,74.566551 191.084534,70.254883 193.180649,66.207039   C194.147263,64.340393 196.110260,62.989719 197.621475,61.405098   C199.054169,62.883141 200.944046,64.131401 201.826004,65.886238   C203.762909,69.740120 205.077240,73.902092 206.882721,77.829338   C207.566696,79.317093 208.903046,80.504936 209.942017,81.829475   C211.054184,80.380348 212.517288,79.079498 213.205261,77.451157   C214.626968,74.086166 215.384918,70.431526 216.905289,67.120773   C217.869614,65.020882 219.715881,63.326008 221.166611,61.449493   C222.930054,63.012333 225.162918,64.280724 226.364319,66.196098   C229.347519,70.952179 231.860031,76.003502 234.880615,81.518745   C236.519287,80.337639 237.815216,79.671158 238.764481,78.674492   C243.698517,73.494125 249.036194,68.588760 253.224442,62.851185   C255.506699,59.724667 256.037415,55.191643 256.913208,51.195457   C258.334076,44.711773 259.447754,38.158020 260.574646,31.613787   C261.155273,28.242107 262.804047,25.375422 266.315094,26.309303   C268.445923,26.876070 270.968842,29.545057 271.547394,31.736458   C273.749756,40.078972 275.222321,48.613579 276.996368,57.070370   C277.267212,58.361462 277.315002,59.950882 278.101013,60.842453   C284.219299,67.782310 290.493195,74.584991 297.541779,82.334679   C300.527496,76.965149 302.679504,72.535973 305.368073,68.460777   C307.094574,65.843872 309.611023,63.748131 311.773376,61.418785   C313.363098,63.951584 315.283844,66.341316 316.456360,69.054413   C317.832916,72.239571 318.407684,75.763557 319.649750,79.018646   C320.085541,80.160728 321.435455,81.640152 322.427002,81.685875   C323.368439,81.729309 324.836731,80.284447 325.292725,79.173584   C327.123474,74.713684 328.464752,70.048195 330.387512,65.633148   C331.103333,63.989479 332.808441,61.891331 334.263214,61.721622   C335.535309,61.573223 337.535248,63.577694 338.423859,65.093948   C340.180145,68.090813 341.528198,71.354095 342.792786,74.605339   C344.504639,79.006683 347.067566,79.330727 350.302948,76.363213   C351.976746,74.828011 353.728058,73.175682 354.801147,71.222832   C358.969208,63.637779 362.868652,55.905384 366.896790,48.242912   C367.511993,47.072613 368.159119,45.883259 368.995789,44.871693   C372.020752,41.214417 374.660614,41.541744 376.114929,46.118858   C379.286987,56.102348 382.024445,66.223282 385.130646,76.228706   C386.283783,79.943123 387.971832,83.491486 389.876465,88.271240   C393.312286,85.008385 395.671021,82.521561 398.309052,80.378601   C399.443756,79.456848 401.438873,78.505981 402.531128,78.919746   C403.672668,79.352196 404.551880,81.319992 404.919128,82.774818   C405.643860,85.645500 405.935944,88.625427 406.571014,92.582512   C412.950165,89.161880 417.742828,85.034584 420.520813,78.748116   C422.268402,74.793388 423.690063,70.673294 425.724304,66.877319   C426.510895,65.409546 428.585358,64.631981 430.073090,63.539970   C431.044464,65.092278 432.713196,66.576637 432.872131,68.208092   C433.789062,77.618874 434.407623,87.060738 435.001068,96.500008   C435.236084,100.237663 436.122284,102.605896 440.712372,101.467567   C443.561646,100.760933 445.317566,102.312737 446.101044,105.269600   C451.232300,124.634956 452.306671,144.264313 450.212555,164.128647   C450.021088,165.945114 450.016663,167.786835 450.015137,169.616898   C450.000885,186.614395 450.135956,203.613205 449.964417,220.608963   C449.830139,233.910736 449.596771,247.223541 448.878204,260.502808   C448.449829,268.419067 446.675476,276.257660 446.129669,284.174164   C445.801788,288.930145 446.673462,293.768860 447.006042,299.061768  M168.946548,70.865395   C168.838440,70.865936 168.730316,70.866478 168.622208,70.867020   C168.759842,70.916763 168.897476,70.966507 168.922012,71.873360   C171.656219,88.565582 174.345413,105.265572 177.221375,121.933334   C177.422699,123.100105 178.809143,124.437057 179.979126,125.002647   C189.172058,129.446686 191.546051,128.918320 198.872391,121.689095   C201.893433,118.708099 204.539398,115.895294 204.087509,111.027885   C203.398026,103.600868 203.795364,96.050682 202.777817,88.684494   C202.138184,84.054161 199.755569,79.664589 198.154892,75.167007   C195.769547,78.203285 194.647964,80.946312 193.555481,83.700874   C192.116058,87.330200 189.983429,88.224937 186.120819,86.657036   C178.409332,83.526810 172.440170,78.749619 168.946548,70.865395  M256.297668,340.082184   C243.556366,346.887848 230.784103,353.637238 218.128357,360.598450   C217.031738,361.201599 216.108292,363.210632 216.125290,364.553711   C216.190231,369.681458 216.808929,374.799530 216.973328,379.929169   C217.393387,393.035065 217.676392,406.145386 218.034195,419.253357   C218.050461,419.849365 218.261871,420.440063 218.382401,421.033264   C221.469254,416.765259 223.526382,412.163361 225.710434,407.622498   C235.002655,388.303192 244.382767,369.025940 253.597153,349.669739   C255.065842,346.584503 255.852066,343.174347 257.018768,340.041412   C257.018768,340.041412 257.011047,340.016113 256.297668,340.082184  M275.953369,339.909180   C275.953369,339.909180 275.869934,340.036438 275.869934,340.036438   C275.869934,340.036438 276.047485,339.916626 275.890564,340.678436   C277.235504,344.063324 278.400452,347.533356 279.954651,350.819305   C289.968109,371.990295 300.055908,393.126190 310.152191,414.257904   C311.305389,416.671539 312.662598,418.987732 313.925171,421.349091   C314.616699,421.214142 315.308228,421.079163 315.999756,420.944214   C315.999756,407.525391 315.954773,394.106262 316.034729,380.687897   C316.052429,377.721069 316.349579,374.732025 316.798859,371.796204   C318.121399,363.153625 317.548248,361.920898 309.830048,357.909027   C308.652954,357.297211 307.551666,356.539917 306.376740,355.923462   C296.252594,350.611450 286.119598,345.316345 275.953369,339.909180  M451.005768,531.474976   C450.983734,534.473267 450.968414,537.471558 450.937927,540.469788   C450.900574,544.145630 449.066650,546.008423 445.358734,545.965271   C443.526398,545.943909 441.690155,545.998108 439.862183,545.898804   C416.289825,544.617371 392.721466,543.259766 369.146118,542.036743   C354.044891,541.253296 338.935211,540.626343 323.826111,540.006836   C320.243317,539.859985 318.240082,538.409729 318.044952,534.643311   C317.804321,529.999084 317.216339,525.369934 317.058075,520.724731   C316.316559,498.958527 315.805176,477.183624 314.911560,455.424103   C314.634796,448.684784 314.589630,441.559387 312.352966,435.363556   C308.809998,425.549103 303.462982,416.391327 298.964966,406.915039   C290.685364,389.471924 282.489502,371.989075 274.210907,354.545471   C271.900574,349.677429 269.422516,344.889008 266.677307,339.372620   C265.455353,341.468048 264.713928,342.558899 264.149109,343.734650   C252.036774,368.947021 239.840729,394.120056 227.900421,419.413757   C223.328201,429.099274 218.115402,438.529694 217.932800,449.847229   C217.654068,467.122314 216.774017,484.390564 215.968399,501.653290   C215.449570,512.771118 214.615738,523.874451 213.903458,534.983032   C213.704865,538.080017 212.255051,539.873413 208.913239,539.998657   C201.940216,540.259827 194.973892,540.694641 188.002182,540.997742   C178.867722,541.394958 169.725235,541.630554 160.595947,542.118225   C137.377457,543.358459 114.169472,544.803528 90.946411,545.945557   C82.816154,546.345398 82.012085,545.322510 82.004433,537.264954   C81.981171,512.766846 81.994453,488.268677 81.993523,463.770538   C81.993446,461.830872 81.993515,459.891205 81.993515,457.909637   C72.905418,458.514221 72.139984,459.393524 71.975250,467.115784   C71.776779,476.419586 71.187164,485.716003 71.046684,495.019867   C70.626831,522.826355 70.323364,550.634583 70.022041,578.442749   C69.951393,584.962646 70.037781,584.988281 76.607735,584.989197   C127.603859,584.996521 178.599976,584.995239 229.596100,584.991516   C236.977432,584.991028 236.926529,584.977722 237.002441,577.734253   C237.316528,547.759766 237.657669,517.785583 238.005203,487.811432   C238.069290,482.283447 239.209259,481.055084 244.783905,481.026550   C258.949127,480.954010 273.114960,480.981812 287.280518,481.003601   C294.264404,481.014343 294.993530,481.747589 294.997437,488.801910   C295.013672,518.299683 295.003357,547.797424 295.007599,577.295166   C295.008698,584.980347 295.016693,584.991516 302.460175,584.992004   C353.122986,584.995361 403.785797,584.993896 454.448608,584.992126   C455.781708,584.992065 457.352753,585.411682 458.389740,584.851868   C459.795197,584.093201 461.179535,582.757507 461.845428,581.329956   C462.421814,580.094238 462.004364,578.385071 461.990875,576.885498   C461.661285,540.248657 461.319000,503.611908 461.000305,466.974976   C460.937408,459.741699 459.223938,458.087769 451.005768,458.093842   C451.005768,482.220154 451.005768,506.351227 451.005768,531.474976  M324.922211,526.643982   C324.402924,531.021240 325.664398,533.182739 330.752533,533.268188   C340.701294,533.435120 350.631592,534.490112 360.579742,534.962036   C371.047638,535.458557 381.533386,535.581848 392.000244,536.094299   C401.127899,536.541138 410.232086,537.511475 419.361572,537.861816   C427.285156,538.165771 435.229614,537.924988 443.687073,537.924988   C443.772247,536.299377 443.976685,534.187317 443.979034,532.074951   C444.003021,510.578247 443.994171,489.081512 443.994354,467.584808   C443.994446,454.063263 443.994324,454.063324 431.175049,449.700226   C431.017578,449.646637 430.861115,449.589539 430.706482,449.528259   C416.790924,444.016937 402.925659,438.371857 388.919708,433.100677   C385.966736,431.989288 382.402618,431.559143 379.282593,431.990448   C361.829620,434.403137 344.424744,437.165100 327.007324,439.832977   C320.713013,440.797058 320.588745,441.194885 321.047516,447.612549   C321.816620,458.371918 322.536041,469.140503 322.957153,479.917664   C323.483032,493.376770 323.660797,506.849213 324.057892,520.313904   C324.111328,522.127747 324.566681,523.929688 324.922211,526.643982  M89.005852,527.467346   C89.007881,529.632385 89.207840,531.819397 88.970825,533.957947   C88.474144,538.439453 90.666588,539.192505 94.592033,538.930664   C111.149635,537.826111 127.717911,536.857056 144.291885,536.030823   C154.912003,535.501404 165.555801,535.447205 176.176147,534.921082   C185.285965,534.469849 194.390961,533.781250 203.462219,532.848816   C204.765503,532.714844 206.778595,530.717468 206.915344,529.419373   C207.836136,520.678528 208.470398,511.900818 208.950760,503.121552   C210.020599,483.569458 210.931732,464.008698 211.946655,444.453491   C212.084793,441.791992 211.630997,440.335297 208.358032,439.894440   C193.057999,437.833496 177.830383,435.231384 162.525635,433.210846   C156.551437,432.422150 149.880447,430.952332 144.499725,432.732788   C127.644119,438.310364 111.290787,445.391724 94.652786,451.651001   C90.480049,453.220795 88.834320,455.368530 88.889664,460.029053   C89.152634,482.176117 89.006401,504.328064 89.005852,527.467346  M218.216370,172.601074   C218.141571,161.107361 218.072937,149.613586 217.988617,138.119949   C217.959366,134.131500 212.220795,125.755081 208.549438,124.393829   C207.978683,124.182205 206.952286,124.019798 206.696686,124.316750   C203.418472,128.125183 198.063995,131.706421 197.449722,135.954575   C195.627533,148.556335 195.274216,161.426926 195.189529,174.198013   C195.151062,179.997757 193.105515,183.819809 189.025970,187.497864   C179.044403,196.497101 169.331573,205.794357 159.504852,214.965515   C158.653534,215.760040 157.862137,216.980453 156.867752,217.196381   C152.923279,218.052841 152.893494,220.786453 152.972870,223.948257   C153.377731,240.078339 154.859848,256.300018 153.662598,272.317566   C152.516296,287.653259 156.358551,299.448029 168.887833,308.495148   C172.561615,311.147919 175.520737,314.790375 179.163147,318.324402   C180.463959,315.857208 181.382263,314.282043 182.148422,312.636078   C188.468231,299.058807 194.738754,285.458618 201.064545,271.884125   C212.803513,246.693588 224.495941,221.480713 236.403168,196.369812   C238.218124,192.542252 238.018860,190.240326 234.509003,187.510605   C228.893112,183.142975 223.781021,178.127533 218.216370,172.601074  M337.489899,285.960083   C342.459229,296.553589 347.428589,307.147064 352.645935,318.269196   C354.822510,316.344360 356.363922,315.104980 357.763550,313.722076   C363.806366,307.751495 369.657013,301.575287 375.902161,295.826477   C378.224548,293.688629 379.063202,291.614532 379.047302,288.580078   C378.943420,268.758728 379.015045,248.936508 378.981873,229.114655   C378.973450,224.086456 380.135864,219.065109 374.056366,215.619476   C370.064850,213.357239 367.534851,208.642136 364.032043,205.365814   C356.504181,198.324646 348.681946,191.597122 341.194183,184.514954   C339.656586,183.060638 338.308929,180.676392 338.144928,178.619431   C337.208832,166.877304 336.492767,155.110886 336.035004,143.339783   C335.746887,135.930008 332.912018,129.924591 327.385010,125.183678   C326.482208,124.409279 324.061340,123.820930 323.670715,124.279175   C319.924500,128.673767 314.549377,131.930862 314.893219,139.080490   C315.348755,148.553085 314.795929,158.070648 315.092133,167.555908   C315.237335,172.205917 313.770477,175.444626 309.962585,178.097382   C305.743683,181.036469 302.014313,184.688202 297.748016,187.546295   C294.337006,189.831436 294.250397,192.263702 295.804382,195.550079   C300.711151,205.927048 305.573395,216.325684 310.367004,226.755402   C319.327057,246.250336 328.226807,265.773010 337.489899,285.960083  M196.478271,298.909302   C193.136215,305.982178 189.609924,312.977783 186.586838,320.184448   C185.867310,321.899719 186.031647,325.010101 187.149307,326.305481   C194.425171,334.738312 202.162109,342.771210 209.559143,351.102783   C212.272247,354.158630 214.747238,354.365723 218.249100,352.435699   C231.508911,345.127563 244.809418,337.881012 258.290161,330.994019   C261.973969,329.112030 263.087036,326.924500 263.074158,322.961975   C262.943634,282.808289 262.691467,242.650055 263.215515,202.502777   C263.341614,192.842880 257.229126,187.698456 252.353653,179.766922   C250.246780,183.790054 248.622543,186.621445 247.243347,189.567551   C235.461456,214.734589 223.703888,239.913086 211.982544,265.108398   C206.860321,276.118713 201.839371,287.176117 196.478271,298.909302  M300.000427,344.493286   C304.844696,347.077942 309.813568,349.458038 314.494568,352.310638   C318.385559,354.681732 321.087250,353.959442 323.929108,350.597534   C330.688904,342.600647 337.824768,334.917969 344.458405,326.821350   C345.686523,325.322296 346.245422,322.039062 345.470337,320.320099   C333.913849,294.690369 322.056763,269.196350 310.322327,243.646576   C303.657501,229.134949 297.126251,214.561951 290.455017,200.053299   C287.501068,193.628983 284.349396,187.295609 280.702911,179.703995   C275.773315,187.694092 269.308777,192.796356 269.794586,202.499084   C270.576691,218.120560 270.004028,233.809830 270.004547,249.470459   C270.005341,274.294220 269.950897,299.118347 270.116333,323.941010   C270.129272,325.882782 271.138397,328.743256 272.604828,329.598114   C281.367249,334.706329 290.399811,339.351135 300.000427,344.493286  M185.503555,335.004974   C179.671860,328.826416 173.840164,322.647888 167.204086,315.617096   C163.652359,324.502686 160.657532,331.860657 157.771652,339.261139   C155.784607,344.356598 152.512527,349.450684 152.294388,354.649414   C151.366684,376.758575 151.380676,398.906799 151.000671,421.039886   C150.955429,423.674469 151.805832,424.799500 154.659485,425.077850   C160.768646,425.673767 166.830124,426.760040 172.910278,427.651398   C184.582993,429.362610 196.257614,431.061127 207.925568,432.804260   C210.602448,433.204224 212.216141,432.449677 211.954086,429.459778   C211.693588,426.487244 211.167480,423.529816 211.050354,420.554230   C210.318192,401.954102 209.778381,383.345306 208.860809,364.754883   C208.736084,362.228058 207.373199,359.346649 205.698105,357.385895   C199.326752,349.927917 192.592133,342.780273 185.503555,335.004974  M322.004974,408.548706   C321.676819,415.014160 321.480286,421.489899 320.974945,427.941467   C320.629272,432.355164 322.444794,433.400055 326.543335,432.744904   C342.951111,430.122101 359.357391,427.440430 375.835510,425.339478   C380.379730,424.760071 381.151306,423.000671 381.050049,419.073669   C380.586975,401.115631 380.116821,383.152649 380.093262,365.190857   C380.083069,357.423370 379.376770,350.108948 375.960449,342.929504   C372.009552,334.626801 368.913605,325.917267 365.420959,317.321533   C364.315369,317.832367 363.749268,317.927429 363.440063,318.260773   C350.679352,332.020477 337.926086,345.787262 325.242798,359.618134   C324.536072,360.388794 324.144775,361.697662 324.090729,362.780212   C323.345825,377.707581 322.685822,392.639221 322.004974,408.548706  M417.995575,305.485657   C418.323425,279.020813 418.688446,252.556396 418.970001,226.091080   C419.343689,190.961411 419.617218,155.830597 420.038757,120.701553   C420.084900,116.855957 418.797363,115.086334 414.004242,115.735764   C414.004242,120.583519 413.840912,125.517632 414.053162,130.435532   C414.240997,134.786835 413.725159,138.627777 410.110901,141.688660   C409.000519,142.629013 408.208282,144.496414 408.109009,145.994888   C406.978851,163.055237 406.166290,180.138412 404.844147,197.182541   C404.629272,199.952728 402.918884,203.150391 400.893738,205.111710   C397.707825,208.197189 393.847198,210.728439 389.932098,212.873550   C386.796509,214.591537 385.938965,216.759140 385.955414,220.097153   C386.059021,241.093765 385.975769,262.091217 386.013336,283.088257   C386.047760,302.335724 392.828369,318.656647 407.220642,331.663818   C411.910492,335.902313 416.452515,340.304565 421.152649,344.531281   C422.603790,345.836243 424.354248,346.808319 426.789124,348.505371   C423.954407,333.554596 416.641907,320.912018 417.995575,305.485657  M127.000778,197.149216   C126.331848,181.049454 125.819481,164.940277 124.854088,148.858307   C124.673828,145.855377 122.682907,142.959106 121.516640,140.017960   C120.350731,137.077682 118.480446,134.217865 118.151581,131.188934   C117.591743,126.032539 117.997429,120.771317 117.997429,115.441742   C112.194862,116.282356 112.046677,116.461967 112.165215,119.429901   C112.801613,135.363449 113.838036,151.296402 113.920692,167.233765   C114.158340,213.055893 113.908737,258.880402 114.091187,304.703033   C114.124756,313.133911 113.230247,321.222626 110.489014,329.206329   C108.444366,335.161255 106.967690,341.311188 105.238083,347.374298   C105.654099,347.594208 106.070122,347.814117 106.486137,348.034058   C108.247017,346.600525 110.097710,345.262756 111.749557,343.713013   C114.907486,340.750366 117.745033,337.413635 121.084450,334.683380   C129.638153,327.690094 136.970444,320.104645 141.069016,309.331512   C144.596985,300.058167 147.564346,291.143677 147.148605,280.951050   C146.301163,260.174744 146.323486,239.362961 145.987335,218.565781   C145.979248,218.065964 146.145706,217.464706 145.927383,217.085327   C145.261261,215.927811 144.672897,214.541214 143.650192,213.805466   C139.472916,210.800339 134.890060,208.306137 130.981995,205.002274   C129.064911,203.381561 128.297241,200.401276 127.000778,197.149216  M245.971237,584.829956   C258.467468,584.880432 270.965057,584.842834 283.459045,585.037842   C286.972382,585.092590 288.046570,583.776184 288.035980,580.369690   C287.945312,551.206909 287.935638,522.043579 288.047791,492.880920   C288.061829,489.230621 286.959045,487.883331 283.204590,487.947174   C272.042542,488.137054 260.872833,488.145569 249.711197,487.943817   C245.856522,487.874176 244.977234,489.408661 244.949692,492.959259   C244.728745,521.433105 244.318863,549.905518 244.057114,578.379272   C244.038208,580.436340 244.730606,582.500000 245.971237,584.829956  M440.995056,332.525208   C440.653107,319.401520 440.832825,306.236389 439.795258,293.167938   C439.038818,283.640381 439.553864,274.447083 440.763123,264.975037   C442.459656,251.686035 442.669586,238.170166 442.914276,224.740387   C443.468811,194.302017 443.952759,163.855408 443.793579,133.415665   C443.751251,125.323044 441.276642,117.243149 439.943848,109.306656   C432.727081,109.671867 427.446167,113.413803 427.068481,117.897964   C426.623016,123.186401 426.112854,128.486877 426.049255,133.787155   C425.638275,168.058640 425.249817,202.330933 425.037689,236.604080   C424.882080,261.748322 424.994446,286.894318 425.030762,312.039429   C425.033630,314.018494 425.081451,316.080231 425.610291,317.962494   C429.162109,330.603638 432.762695,343.233185 436.593231,355.791534   C437.130768,357.553741 439.010864,358.906464 440.995056,361.337799   C440.995056,350.941650 440.995056,342.229004 440.995056,332.525208  M103.010811,427.280884   C103.493484,431.338654 103.976158,435.396423 104.490128,439.717316   C105.714485,439.517181 106.550735,439.519684 107.278999,439.240509   C117.828918,435.196167 128.308380,430.959137 138.932144,427.120941   C142.911819,425.683167 144.140488,423.407654 144.078400,419.331268   C143.931580,409.693268 144.121063,400.045593 144.373291,390.407013   C144.843933,372.421997 148.008896,354.170105 138.677155,337.237823   C137.702194,335.468781 136.828659,333.643829 135.678680,331.396576   C133.925568,332.906189 132.793137,333.834381 131.712631,334.819580   C125.821609,340.190735 120.169685,345.852753 114.006767,350.890198   C105.160614,358.120911 97.523705,365.592285 101.943253,378.499176   C102.046272,378.800049 101.978241,379.160370 101.985497,379.493042   C102.326225,395.103851 102.666428,410.714630 103.010811,427.280884  M389.731567,425.572845   C402.182678,430.361115 414.633789,435.149384 427.438232,440.073517   C428.053467,435.448761 428.810974,432.019592 428.916565,428.570496   C429.379456,413.451782 429.624634,398.326477 430.022186,383.205505   C430.096039,380.397308 430.719788,377.597595 430.715363,374.794556   C430.708008,370.135010 432.696381,365.077942 428.509003,361.101135   C420.430817,353.429199 412.349121,345.760468 404.212646,338.150574   C401.830170,335.922302 399.257629,333.897217 396.452789,331.506775   C395.141968,334.367920 393.886200,336.701050 392.980865,339.163055   C390.486694,345.945831 386.585449,352.119904 386.871674,359.965820   C387.605194,380.069641 387.653473,400.198090 388.056366,420.315094   C388.088135,421.899658 388.744629,423.471680 389.731567,425.572845  M89.004974,141.512802   C89.335777,150.143738 89.841164,158.772156 89.965546,167.406067   C90.385071,196.526031 90.609459,225.648880 91.068581,254.768097   C91.138710,259.215820 92.166969,263.640503 92.553085,268.093079   C93.110832,274.524841 93.760605,280.968201 93.857582,287.414368   C93.942230,293.041138 93.253143,298.675934 93.016983,304.311829   C92.328667,320.738617 91.687477,337.167389 91.052269,353.596344   C90.973213,355.640991 91.041473,357.691315 91.041473,359.739014   C91.687271,359.918060 92.333061,360.097107 92.978859,360.276154   C93.881996,358.601349 95.055466,357.014709 95.635971,355.234680   C97.181419,350.495728 98.354515,345.635742 99.884865,340.891388   C104.654121,326.105865 107.645721,311.240814 107.213112,295.425446   C106.439034,267.126740 107.126312,238.790894 106.958191,210.472031   C106.789261,182.016251 106.338287,153.562042 105.973343,125.107628   C105.891106,118.695816 104.634743,112.907280 97.859558,109.953255   C94.897171,108.661636 93.120171,108.847618 92.661324,112.451431   C91.469681,121.810829 90.227196,131.163757 89.004974,141.512802  M258.498840,125.997185   C259.416077,124.817574 260.283722,123.595184 261.258972,122.465652   C265.914825,117.073280 267.063843,117.019302 271.606812,122.392586   C274.771606,126.135857 277.730438,130.053268 281.053497,134.235428   C283.399719,130.790848 285.282196,127.873283 287.320801,125.069237   C290.621918,120.528648 291.828583,115.894730 290.231049,110.158356   C288.054230,102.342102 286.334839,94.334572 285.253784,86.296814   C284.356781,79.627739 281.697601,74.398674 276.665863,70.089607   C272.751434,66.737366 270.476044,62.488735 269.772491,57.229763   C269.161346,52.661880 267.840881,48.188896 266.833923,43.673973   C265.463928,44.879944 265.085144,45.942493 264.946350,47.035526   C263.560913,57.944885 260.975983,68.219292 251.501221,75.356796   C250.218643,76.322975 249.469940,78.399918 249.093155,80.099770   C246.974731,89.657494 245.697845,99.453712 242.883850,108.791878   C239.523438,119.943237 247.097855,126.097748 251.911789,134.381653   C254.357651,131.244629 256.193024,128.890594 258.498840,125.997185  M436.002045,411.596985   C435.684204,419.228394 435.503296,426.868622 435.012146,434.488861   C434.460480,443.048920 435.584442,444.517761 444.858032,445.835327   C445.228180,444.829590 445.714142,443.794281 445.994324,442.705994   C452.088196,419.034241 458.063293,395.331390 464.286926,371.693909   C466.445679,363.494965 463.183167,356.255188 461.591736,347.396698   C457.349976,354.143646 453.736237,359.698700 450.330353,365.378326   C448.135986,369.037689 445.507507,370.784393 441.277924,368.696167   C440.476410,368.300354 439.477600,368.304169 437.998169,368.009888   C437.320465,382.481689 436.661499,396.554077 436.002045,411.596985  M73.969826,391.625061   C78.593826,409.846558 83.217834,428.068085 87.843208,446.295013   C97.087425,443.767883 97.460938,443.312958 96.954147,435.108307   C96.739952,431.640686 96.128494,428.190979 96.032410,424.723816   C95.613945,409.622986 95.394646,394.516327 94.924820,379.417358   C94.808266,375.671478 94.025169,371.946320 93.546967,368.199951   C85.545570,369.795532 85.551712,369.791443 80.835022,362.716431   C77.574356,357.825470 74.293755,352.947754 71.022064,348.064087   C70.575684,348.125763 70.129311,348.187439 69.682930,348.249115   C68.899101,354.253876 66.906631,360.406799 67.620239,366.227997   C68.640999,374.554871 71.640442,382.639191 73.969826,391.625061  M51.005707,491.500031   C51.008827,521.110901 51.105446,550.722351 50.923538,580.332092   C50.893024,585.298584 53.669388,585.041870 56.973446,585.012634   C60.212391,584.983948 63.084446,585.407043 63.093014,580.381592   C63.117077,566.264526 63.747528,552.149719 63.964016,538.031311   C64.119576,527.886169 63.887131,517.735168 64.033661,507.589722   C64.124557,501.296082 64.748451,495.010773 64.866325,488.716736   C65.018250,480.604431 64.903313,472.487122 64.903313,463.477936   C60.995483,464.815002 57.815041,466.043671 54.550076,466.976501   C51.865116,467.743561 50.894444,469.258240 50.966568,472.036194   C51.126266,478.187012 51.009644,484.345001 51.005707,491.500031  M480.994232,523.500000   C480.992737,506.674225 481.027283,489.848267 480.933868,473.023010   C480.924561,471.345398 480.647736,468.729218 479.616180,468.170197   C476.264832,466.353882 472.504913,465.291321 468.006226,463.602142   C468.006226,467.068085 467.989197,469.207184 468.008820,471.345917   C468.340210,507.469208 468.767944,543.592102 468.900970,579.716187   C468.918640,584.511292 470.925232,585.075562 474.869476,585.091309   C478.993103,585.107788 481.194153,584.554993 481.109985,579.473328   C480.806671,561.153259 480.992889,542.825073 480.994232,523.500000  M371.674835,69.386681   C368.436798,87.195068 365.105804,104.987694 362.080902,122.832214   C361.712036,125.008293 362.663483,127.597260 363.560303,129.764252   C366.546906,136.980759 373.676697,136.300552 379.623260,137.844452   C382.559814,138.606857 384.368073,137.488800 386.388153,135.153763   C392.103699,128.547134 389.192078,120.396751 390.849762,113.094078   C392.148834,107.371246 389.753876,102.223938 386.902100,97.053024   C383.315918,90.550423 380.731171,83.471222 378.009796,76.525063   C376.378021,72.360107 375.310364,67.974129 373.989166,63.687496   C373.611237,63.744446 373.233307,63.801399 372.855377,63.858349   C372.517639,65.445900 372.179932,67.033447 371.674835,69.386681  M149.528076,89.943459   C145.922394,97.681267 140.492874,104.794785 141.989563,114.196175   C142.664062,118.433022 142.773605,122.768303 142.999146,127.066292   C143.428116,135.240784 147.757385,138.703949 155.744339,137.140335   C157.536087,136.789551 159.336685,136.475784 161.114929,136.065720   C166.169983,134.899994 170.761627,128.664124 170.078140,123.476692   C169.212662,116.907860 168.100937,110.369102 166.986649,103.835922   C164.608688,89.893539 162.160706,75.963104 159.544693,60.894764   C156.057693,71.114662 152.962067,80.187553 149.528076,89.943459  M76.532677,430.053680   C72.446289,414.311157 68.359894,398.568665 64.273506,382.826141   C63.754185,382.877075 63.234871,382.927979 62.715553,382.978912   C59.818275,408.662415 50.226807,433.336823 50.996067,460.919983   C61.324093,456.931305 70.569878,453.438171 79.703537,449.673004   C80.371429,449.397644 80.644081,447.066711 80.388458,445.839783   C79.339630,440.805786 78.015015,435.829254 76.532677,430.053680  M330.001556,94.495506   C329.668549,99.623505 329.100464,104.749146 329.048981,109.879967   C328.922150,122.523949 338.247406,129.519012 350.091583,125.858170   C350.727325,125.661682 351.538605,125.624214 351.954010,125.202942   C353.063904,124.077370 354.619751,122.912323 354.908600,121.534508   C356.711761,112.933113 358.244019,104.274147 359.812042,95.624466   C361.252808,87.676994 362.625641,79.717201 364.028381,71.762840   C363.680939,71.526497 363.333466,71.290161 362.985992,71.053825   C360.487640,79.380508 353.690308,82.871155 346.985901,86.525291   C343.659698,88.338173 341.310516,87.730698 339.676727,84.305527   C338.233582,81.279976 336.757080,78.270325 335.295319,75.253662   C334.645844,75.272552 333.996368,75.291451 333.346893,75.310341   C332.231903,81.391083 331.116913,87.471832 330.001556,94.495506  M454.212250,438.775421   C453.760345,440.718933 453.540222,442.755005 452.808838,444.586884   C451.235229,448.528198 452.749115,450.205139 456.539520,451.423370   C461.912872,453.150299 467.072754,455.534485 472.350586,457.568542   C474.904297,458.552734 477.518768,459.379150 480.176331,460.301483   C482.078583,451.556671 472.752930,392.969757 468.132324,384.938751   C463.476105,403.011688 458.970001,420.502106 454.212250,438.775421  M225.012924,137.982788   C225.012039,147.473038 224.842148,156.968536 225.135925,166.449661   C225.204453,168.660919 226.335266,171.322342 227.874359,172.903412   C230.983948,176.097839 234.747360,178.647934 238.166168,181.552032   C240.456451,183.497498 242.162842,183.498642 243.688705,180.631256   C246.287262,175.748047 248.535568,170.927109 248.093445,165.065964   C247.656372,159.271576 247.823730,153.412094 248.036392,147.592529   C248.395447,137.767380 241.211426,132.067108 236.699158,124.134033   C231.950943,128.694626 226.174240,130.737915 225.012924,137.982788  M303.484131,130.059067   C301.184753,128.282089 298.885376,126.505104 295.381165,123.797005   C291.656799,131.319244 285.996277,137.864288 285.520630,144.766663   C284.628448,157.712219 281.821808,171.641083 291.166931,183.779083   C295.755829,180.180405 300.384033,176.931046 304.508453,173.134415   C306.222107,171.556976 307.731812,168.850113 307.832855,166.589722   C308.218750,157.957184 307.799713,149.291000 308.080811,140.650375   C308.215790,136.501389 307.285400,133.152985 303.484131,130.059067  M168.015854,175.745361   C168.015854,182.174255 168.015854,188.603165 168.015854,195.825958   C173.827362,190.909760 179.661362,186.386063 184.934204,181.282639   C186.693024,179.580338 187.656326,176.450424 187.882324,173.876450   C188.794144,163.492218 189.174088,153.062576 189.953156,142.664902   C190.451950,136.007507 190.123627,134.976410 183.516922,133.448196   C180.680847,132.792206 176.437958,132.200409 174.815918,133.709488   C172.317093,136.034271 170.577271,140.086853 170.185730,143.593002   C169.029663,153.945236 168.693222,164.389008 168.015854,175.745361  M256.725861,173.483444   C259.099182,176.885468 261.539551,180.243240 263.823975,183.703949   C265.563293,186.338837 266.918060,186.571579 269.086700,183.929169   C275.267639,176.397888 279.893158,168.484894 278.061646,158.153214   C277.633148,155.736008 277.652374,153.120270 278.058136,150.694992   C279.820251,140.162277 272.062164,134.764709 266.791626,127.762039   C258.788635,135.282562 253.012772,142.912216 254.898483,154.168777   C255.548523,158.049057 254.858719,162.136871 255.059784,166.115799   C255.173645,168.369019 255.853333,170.593643 256.725861,173.483444  M358.555695,134.906937   C356.956146,134.017258 355.275757,132.271912 353.773621,132.413788   C350.520538,132.720993 347.256500,133.748306 344.217163,135.011185   C343.207306,135.430786 342.266266,137.496323 342.322113,138.764114   C342.737061,148.188614 343.827759,157.599411 343.879944,167.019073   C343.926941,175.499908 346.738617,182.024216 353.746002,186.903168   C357.251312,189.343765 360.373810,192.334091 364.353638,195.644958   C363.869995,181.213303 363.837921,168.115402 362.823975,155.093948   C362.313049,148.532516 363.755341,141.348785 358.555695,134.906937  M210.002380,95.580612   C210.334320,99.544792 211.366684,103.602562 210.852112,107.453636   C209.787247,115.422981 214.014725,120.398346 219.519470,124.722107   C220.598297,125.569481 223.330902,125.609566 224.501312,124.826736   C231.010590,120.473000 236.068893,115.275047 236.486374,106.512260   C236.759476,100.779854 238.717712,95.127731 240.086273,88.659286   C233.619751,92.534294 232.891632,92.413712 229.531525,86.767967   C227.203842,82.856918 225.139297,78.789261 222.957169,74.791573   C222.494904,74.851471 222.032639,74.911377 221.570374,74.971275   C220.675644,77.579185 220.101898,80.364517 218.788269,82.740875   C217.664444,84.773941 215.991562,87.292526 214.031860,87.906868   C210.195450,89.109550 209.694687,91.443764 210.002380,95.580612  M319.086761,118.412178   C320.022186,116.894157 321.635620,115.436211 321.776398,113.847786   C322.404510,106.758766 322.731537,99.634537 322.854279,92.517624   C322.874786,91.327492 321.511139,89.239899 320.510376,89.053612   C315.595123,88.138687 313.703522,84.881744 312.676727,80.523285   C312.256348,78.738708 311.372498,77.063316 310.246552,74.177208   C307.840149,78.697960 306.097961,82.053070 304.281006,85.367210   C300.487579,92.286438 300.235657,92.365585 292.963196,89.054039   C294.679260,97.194168 296.300995,104.924385 297.940125,112.650909   C299.410614,119.582664 305.307465,122.677811 310.560608,125.751923   C311.527191,126.317574 315.592346,121.589378 318.225494,119.302658   C318.350525,119.194077 318.458527,119.065865 319.086761,118.412178  M155.927948,208.404205   C160.422775,204.578552 159.930817,199.293976 160.199844,194.171371   C161.051147,177.960297 162.012558,161.754990 162.877045,145.544571   C162.915146,144.830048 162.417984,144.086990 162.064697,143.046799   C158.911880,143.680145 155.900452,143.982422 153.136719,144.974594   C151.854294,145.434982 150.218384,147.198120 150.160065,148.437363   C149.302521,166.662521 148.607147,184.896606 148.054886,203.134079   C147.886124,208.707596 149.798416,210.012985 155.927948,208.404205  M369.578613,150.126480   C370.053253,160.898239 370.501465,171.671265 371.012543,182.441299   C371.311188,188.734818 370.925262,195.213654 372.383759,201.237091   C373.154114,204.418564 376.929230,208.677536 379.857666,209.126923   C384.792236,209.884155 384.038849,204.739853 383.953491,201.393982   C383.754761,193.601395 383.301147,185.815704 383.004852,178.025162   C382.632721,168.240433 382.374420,158.450745 381.897400,148.671463   C381.837708,147.447952 380.983368,145.489548 380.088654,145.218079   C376.712738,144.193649 373.168152,143.725189 369.317596,142.976883   C369.317596,145.686752 369.317596,147.478638 369.578613,150.126480  M399.461517,171.005890   C399.968414,162.907562 400.560760,154.813202 400.938812,146.708862   C401.083344,143.610489 395.562195,136.803055 394.415222,137.899780   C392.039948,140.170837 390.632202,143.518402 389.089539,146.556824   C388.618622,147.484406 388.976776,148.848770 389.005554,150.011856   C389.338379,163.449051 389.588928,176.889374 390.077026,190.321014   C390.222504,194.323822 391.041138,198.302155 391.581482,202.527283   C395.999237,200.739532 398.160706,198.402420 398.141357,193.758026   C398.111023,186.479706 398.821442,179.198303 399.461517,171.005890  M141.997879,186.398468   C142.321930,176.123627 142.843246,165.849808 142.896393,155.573563   C142.928513,149.363098 144.763229,142.577805 138.924881,137.371292   C134.438034,140.318970 131.527832,143.634811 131.909256,149.531326   C132.860962,164.244171 133.533432,178.982941 133.893677,193.721680   C134.011322,198.535767 136.076889,200.902481 140.656509,202.482513   C141.127014,197.178085 141.562149,192.272507 141.997879,186.398468  M390.124969,327.848816   C389.328247,318.271606 384.072510,310.427216 380.822449,301.558655   C370.450043,309.157745 370.177185,310.032227 374.382202,320.584106   C375.180206,322.586639 376.000793,324.580200 376.818359,326.574829   C378.898163,331.648895 380.982086,336.721222 383.605225,343.111847   C386.134735,337.317719 388.043549,332.945343 390.124969,327.848816  M142.278137,327.059631   C144.234940,331.906372 146.191742,336.753143 148.635071,342.804993   C152.357697,333.528198 155.474625,325.504181 158.793381,317.564545   C161.942978,310.029572 160.205795,305.780762 151.184464,301.785278   C148.159576,309.976349 145.149384,318.127625 142.278137,327.059631  M110.864738,89.573875   C109.148834,87.280098 107.432922,84.986313 105.155083,81.941368   C104.410439,89.269661 103.605515,95.760857 103.206268,102.276909   C103.122269,103.647987 104.223671,105.417915 105.297455,106.479538   C111.235245,112.350090 119.913338,109.011574 123.337212,99.755905   C119.341766,96.492599 115.382362,93.258743 110.864738,89.573875  M134.994644,110.756042   C135.205841,107.900085 134.757446,104.736832 131.568298,104.627251   C129.942917,104.571404 126.931770,107.295265 126.754852,108.992752   C125.887054,117.319130 125.690720,125.721703 125.559242,134.102097   C125.551857,134.572845 128.869492,135.945358 129.563370,135.434982   C133.163330,132.787125 136.719528,129.930191 136.037430,124.529884   C135.498413,120.262276 135.330963,115.947723 134.994644,110.756042  M419.648529,108.996925   C424.296936,109.542007 428.269836,107.434837 428.588806,103.136162   C429.041016,97.041595 427.744354,90.817261 427.221619,84.946548   C421.082123,90.233498 415.301331,95.211555 409.534943,100.177193   C410.632324,105.210251 413.301178,108.576111 419.648529,108.996925  M398.004547,110.799278   C397.728088,113.602646 397.409119,116.402618 397.184174,119.210114   C396.742889,124.717331 396.026367,130.344055 401.618011,134.028717   C402.664490,134.718292 404.414856,135.903931 404.901123,135.554306   C405.917603,134.823441 406.813843,133.242630 406.867065,131.973526   C407.090088,126.650459 407.430420,121.264862 406.855927,115.997261   C406.400146,111.818085 404.676147,107.777222 403.515228,103.674942   C402.663940,103.628418 401.812622,103.581894 400.961334,103.535370   C399.977936,105.670013 398.994568,107.804657 398.004547,110.799278  M137.694092,98.126846   C139.638611,93.764030 136.667587,92.346268 133.323807,90.077377   C132.938400,94.390778 132.279800,97.779305 137.694092,98.126846  M399.245117,96.666580   C399.138092,94.824989 399.031067,92.983398 398.924042,91.141800   C398.272400,91.000092 397.620758,90.858376 396.969116,90.716660   C396.250549,92.893097 395.531982,95.069542 394.813416,97.245979   C396.155273,97.236313 397.497162,97.226654 399.245117,96.666580  z"
   id="path2"
   style="fill:#ffffff;fill-opacity:1" />



















































</svg>
