<?xml version="1.0" encoding="UTF-8" standalone="no"?>
<!-- Created with Inkscape (http://www.inkscape.org/) -->

<svg
   width="123.99853mm"
   height="129.66679mm"
   viewBox="0 0 123.99853 129.66679"
   version="1.1"
   id="svg1"
   xml:space="preserve"
   xmlns="http://www.w3.org/2000/svg"
   xmlns:svg="http://www.w3.org/2000/svg"><defs
     id="defs1" /><g
     id="layer1"
     transform="translate(-16.505295,-5.328593)"><path
       style="fill:none;stroke:#ffffff;stroke-width:2"
       d="M 25.762081,103.41636 94.583643,35.698885 125.49814,66.245353 56.30855,133.59479 Z"
       id="path1" /><path
       style="fill:none;stroke:#ffffff;stroke-width:2"
       d="M 94.583643,36.066915 104.88848,12.513011 c 0,0 8.46468,-12.513011 18.03345,0.36803"
       id="path2" /><path
       style="fill:none;stroke:#ffffff;stroke-width:2"
       d="m 125.54279,66.527914 13.94048,-26.044643 c 0,0 -1.51294,-18.617073 -10.34565,-21.929341"
       id="path3" /><path
       style="fill:none;stroke:#ffffff;stroke-width:2"
       d="m 122.05575,11.970214 7.85875,7.535362"
       id="path4" /><path
       style="fill:none;stroke:#ffffff;stroke-width:2"
       d="m 109.67286,49.315983 17.2974,-32.018585"
       id="path5" /><path
       style="fill:none;stroke:#ffffff;stroke-width:2"
       d="m 80.379096,25.371727 c 0,0 -35.479469,-3.657973 -39.527795,39.033478"
       id="path6" /><path
       style="fill:none;stroke:#ffffff;stroke-width:2"
       d="M 17.297398,89.063197 96.423791,8.0966542 c 0,0 4.788219,-3.3754117 17.669259,-0.7992035"
       id="path7" /><path
       style="fill:none;stroke:#ffffff;stroke-width:2"
       d="M 25.486059,103.32435 17.389405,88.005111"
       id="path8" /></g></svg>
